<?xml version="1.0" encoding="utf-8"?>
<!-- Generator: Adobe Illustrator 24.1.1, SVG Export Plug-In . SVG Version: 6.00 Build 0)  -->
<svg version="1.1" id="Layer_1" xmlns="http://www.w3.org/2000/svg" xmlns:xlink="http://www.w3.org/1999/xlink" x="0px" y="0px"
	 viewBox="0 0 139.64 132.07" style="enable-background:new 0 0 139.64 132.07;" xml:space="preserve">
<style type="text/css">
	.st0{fill:#FFFFFF;stroke:#010202;stroke-width:4;stroke-miterlimit:10;}
	.st1{fill:#FFFFFF;stroke:#000000;stroke-width:3.5;stroke-miterlimit:10;}
	.st2{fill:none;stroke:#000000;stroke-width:3.5;stroke-linecap:round;stroke-miterlimit:10;}
	.st3{fill:#FFFFFF;stroke:#715EA6;stroke-width:3.5;stroke-miterlimit:10;}
	.st4{fill:none;stroke:#715EA6;stroke-width:3.5;stroke-linecap:round;stroke-miterlimit:10;}
	.st5{fill:#FFFFFF;stroke:#000000;stroke-width:3.5;stroke-linecap:round;stroke-linejoin:round;stroke-miterlimit:10;}
	.st6{fill:none;stroke:#000000;stroke-width:3.5;stroke-linejoin:round;stroke-miterlimit:10;}
	.st7{stroke:#715EA6;stroke-width:3.5;stroke-linecap:round;stroke-miterlimit:10;}
	.st8{fill:none;stroke:#000000;stroke-width:2;stroke-linecap:round;stroke-miterlimit:10;}
	.st9{fill:none;stroke:#000000;stroke-width:4.1671;stroke-linecap:round;stroke-miterlimit:10;}
	.st10{stroke:#000000;stroke-width:4.1671;stroke-miterlimit:10;}
	.st11{fill:#FFFFFF;stroke:#715EA6;stroke-width:4.1671;stroke-linecap:round;stroke-linejoin:round;stroke-miterlimit:10;}
	.st12{stroke:#715EA6;stroke-width:2.7781;stroke-miterlimit:10;}
	.st13{fill:none;stroke:#715EA6;stroke-width:3.5;stroke-linejoin:round;stroke-miterlimit:10;}
	.st14{fill:#FFFFFF;stroke:#000000;stroke-width:3.5;stroke-linejoin:round;stroke-miterlimit:10;}
	.st15{fill:#FFFFFF;stroke:#715EA6;stroke-width:3.5;stroke-linejoin:bevel;stroke-miterlimit:10;}
	.st16{fill:none;stroke:#715EA6;stroke-width:3.5;stroke-miterlimit:10;}
	.st17{fill:none;stroke:#000000;stroke-width:3.5;stroke-linecap:round;stroke-linejoin:round;stroke-miterlimit:10;}
	.st18{fill:#FFFFFF;stroke:#010202;stroke-width:4;stroke-linecap:round;stroke-miterlimit:10;}
	.st19{fill:#FFFFFF;stroke:#715FA6;stroke-width:4;stroke-linecap:round;stroke-miterlimit:10;}
	.st20{fill:none;}
</style>
<path class="st0" d="M-245.39,463.07L-245.39,463.07c-5.5,0-10-4.5-10-10v-23.28c0-5.5,4.5-10,10-10h0c5.5,0,10,4.5,10,10v23.28
	C-235.39,458.57-239.89,463.07-245.39,463.07z"/>
<path class="st0" d="M-259.2,483.07L-259.2,483.07c-5.5,0-10-4.5-10-10v-53.28c0-5.5,4.5-10,10-10h0c5.5,0,10,4.5,10,10v53.28
	C-249.2,478.57-253.7,483.07-259.2,483.07z"/>
<g>
	<path class="st1" d="M-234.1,158.11l-20.44-21.84h-34.79l-21.38,21.13c-0.57,0.48-1.16,0.89-1.77,1.25
		c-7.33,4.27-17.34,0.01-18.38-8.81c-0.03-0.23-0.05-0.86-0.06-1.57c-0.04-1.59,0.17-3.19,0.6-4.72l11.26-39.4
		c2.57-7.16,8.8-14.27,16.65-14.27h60.07c7.85,0,14.57,5.65,16.65,14.27l9.96,36.84c0,0.49,1.87,6.43,1.87,8.63
		C-213.88,159.22-226.31,163.72-234.1,158.11z"/>
	<line class="st2" x1="-272.37" y1="87.5" x2="-272.37" y2="63.12"/>
	<circle class="st3" cx="-290.13" cy="134.29" r="8.33"/>
	<circle class="st3" cx="-255.24" cy="134.29" r="8.33"/>
	<line class="st4" x1="-296.58" y1="103.02" x2="-296.58" y2="120.46"/>
	<line class="st4" x1="-287.85" y1="111.74" x2="-305.3" y2="111.74"/>
	<circle class="st4" cx="-259.2" cy="105.83" r="5.95"/>
	<circle class="st4" cx="-241.03" cy="114.52" r="5.95"/>
</g>
<g>
	<path class="st5" d="M-409.99,286.41h-71.5c5.28,0,9.57,5.05,9.57,11.28s-4.28,11.28-9.57,11.28h71.5c5.28,0,9.57-5.05,9.57-11.28
		S-404.71,286.41-409.99,286.41z"/>
	<path class="st6" d="M-471.93,297.69c0,6.23-4.28,11.28-9.57,11.28c-5.28,0-9.57-5.05-9.57-11.28v-88.36"/>
	<path class="st1" d="M-409.99,208.34c0-6.23-4.28-11.28-9.57-11.28"/>
	<path class="st1" d="M-510.2,208.34c0-6.23,4.28-11.28,9.57-11.28c5.28,0,9.57,5.05,9.57,11.28H-510.2z"/>
	<line class="st1" x1="-409.99" y1="286.41" x2="-409.99" y2="208.34"/>
	<line class="st1" x1="-500.63" y1="197.06" x2="-419.56" y2="197.06"/>
	
		<text transform="matrix(1 0 0 1 -478.3687 233.8074)" style="fill:#715EA6; font-family:'ArialRoundedMTBold'; font-size:28.4861px;">FAQ</text>
	<line class="st7" x1="-473.94" y1="250.03" x2="-447.78" y2="250.03"/>
	<line class="st7" x1="-454.92" y1="264.52" x2="-423.28" y2="264.52"/>
</g>
<path class="st8" d="M-781.9,43.25"/>
<g>
	<path class="st9" d="M-261.28,270.66"/>
	<path class="st9" d="M-261.28,282.17v31.97c0,4.5-3.68,8.19-8.19,8.19h-53.2c-4.5,0-8.19-3.68-8.19-8.19v-99.24
		c0-4.5,3.68-8.19,8.19-8.19h53.2c4.5,0,8.19,3.68,8.19,8.19v27.11"/>
	<line class="st10" x1="-330.85" y1="298.28" x2="-261.28" y2="298.28"/>
	<line class="st10" x1="-330.85" y1="226.4" x2="-261.28" y2="226.4"/>
	<circle cx="-296.06" cy="310.05" r="3.07"/>
	<path class="st11" d="M-232.31,245.33h-33.23l-9.21,6.39l0.17-6.39h-3.9c-3.38,0-6.14-2.76-6.14-6.14v-26.35
		c0-3.38,2.76-6.14,6.14-6.14h46.16c3.38,0,6.14,2.76,6.14,6.14v26.35C-226.17,242.57-228.94,245.33-232.31,245.33z"/>
	<circle class="st12" cx="-271.43" cy="226.4" r="1.83"/>
	<circle class="st12" cx="-255.39" cy="226.4" r="1.83"/>
	<circle class="st12" cx="-239.96" cy="226.4" r="1.83"/>
</g>
<g>
	<polygon class="st13" points="-404.75,160.72 -506.48,160.72 -506.48,95.32 -456.22,69.77 -404.75,95.32 	"/>
	<path class="st1" d="M-476.52,138.69"/>
	<polyline class="st14" points="-488.58,111.84 -488.58,59.53 -422.05,59.53 -422.05,111.67 	"/>
	<path class="st15" d="M-506.18,160.72l37.61-28.64c7.83-5.96,18.68-5.96,26.51,0l37.61,28.64H-506.18z"/>
	<line class="st16" x1="-488.58" y1="112.52" x2="-468.57" y2="132.07"/>
	<line class="st16" x1="-506.18" y1="95.32" x2="-488.58" y2="112.52"/>
	<line class="st13" x1="-404.75" y1="95.32" x2="-442.36" y2="132.07"/>
	<line class="st17" x1="-477.94" y1="69.77" x2="-456.22" y2="69.77"/>
	<line class="st17" x1="-456.68" y1="81.86" x2="-430.25" y2="81.86"/>
	<line class="st17" x1="-481.85" y1="97.53" x2="-442.88" y2="97.53"/>
</g>
<path class="st0" d="M-182.28,381.14c-24.67,10.81-68.33,16-68.33,16l0.84,0.04c-0.28-0.02-0.55-0.04-0.84-0.04h-23
	c-6.05,0-11,4.95-11,11v27.33c0,6.05,4.95,11,11,11h23c0.28,0,0.56-0.02,0.84-0.04l-0.84,0.04c0,0,43.67,5.19,68.33,16"/>
<path class="st0" d="M-183.28,470.47L-183.28,470.47c-5.5,0-10-4.5-10-10v-75.33c0-5.5,4.5-10,10-10h0c5.5,0,10,4.5,10,10v75.33
	C-173.28,465.97-177.78,470.47-183.28,470.47z"/>
<line class="st0" x1="-249.77" y1="397.18" x2="-249.77" y2="446.43"/>
<line class="st18" x1="-269.2" y1="421.79" x2="-264.39" y2="421.79"/>
<line class="st19" x1="-154.2" y1="420.79" x2="-140.28" y2="420.79"/>
<line class="st19" x1="-157.43" y1="438.2" x2="-150.97" y2="444.66"/>
<line class="st19" x1="-157.43" y1="403.38" x2="-150.97" y2="396.92"/>
<rect x="-514.28" y="52" class="st20" width="118" height="116"/>
<g>
	<polygon class="st13" points="120.25,120.49 18.52,120.49 18.52,55.09 68.78,29.54 120.25,55.09 	"/>
	<path class="st1" d="M48.48,98.46"/>
	<polyline class="st14" points="36.42,71.61 36.42,19.3 102.95,19.3 102.95,71.44 	"/>
	<path class="st15" d="M18.82,120.49l37.61-28.64c7.83-5.96,18.68-5.96,26.51,0l37.61,28.64H18.82z"/>
	<line class="st16" x1="36.42" y1="72.29" x2="56.43" y2="91.85"/>
	<line class="st16" x1="18.82" y1="55.09" x2="36.42" y2="72.29"/>
	<line class="st13" x1="120.25" y1="55.09" x2="82.64" y2="91.85"/>
	<line class="st17" x1="47.06" y1="29.54" x2="68.78" y2="29.54"/>
	<line class="st17" x1="68.32" y1="41.64" x2="94.75" y2="41.64"/>
	<line class="st17" x1="43.15" y1="57.3" x2="82.12" y2="57.3"/>
</g>
<rect x="10.72" y="11.77" class="st20" width="118" height="116"/>
<g>
	<path class="st1" d="M108.69,255.84L88.25,234H53.45l-21.38,21.13c-0.57,0.48-1.16,0.89-1.77,1.25
		c-7.33,4.27-17.34,0.01-18.38-8.81c-0.03-0.23-0.05-0.86-0.06-1.57c-0.04-1.59,0.17-3.19,0.6-4.72l11.26-39.4
		c2.57-7.16,8.8-14.27,16.65-14.27h60.07c7.85,0,14.57,5.65,16.65,14.27l9.96,36.84c0,0.49,1.87,6.43,1.87,8.63
		C128.91,256.95,116.49,261.44,108.69,255.84z"/>
	<line class="st2" x1="70.42" y1="185.23" x2="70.42" y2="160.84"/>
	<circle class="st3" cx="52.66" cy="232.02" r="8.33"/>
	<circle class="st3" cx="87.55" cy="232.02" r="8.33"/>
	<line class="st4" x1="46.22" y1="200.74" x2="46.22" y2="218.19"/>
	<line class="st4" x1="54.94" y1="209.47" x2="37.5" y2="209.47"/>
	<circle class="st4" cx="83.59" cy="203.56" r="5.95"/>
	<circle class="st4" cx="101.76" cy="212.24" r="5.95"/>
</g>
<g>
	<path class="st5" d="M114.1,390.9h-71.5c5.28,0,9.57,5.05,9.57,11.28c0,6.23-4.28,11.28-9.57,11.28h71.5
		c5.28,0,9.57-5.05,9.57-11.28C123.67,395.95,119.38,390.9,114.1,390.9z"/>
	<path class="st6" d="M52.16,402.18c0,6.23-4.28,11.28-9.57,11.28s-9.57-5.05-9.57-11.28v-88.36"/>
	<path class="st1" d="M114.1,312.83c0-6.23-4.28-11.28-9.57-11.28"/>
	<path class="st1" d="M13.89,312.83c0-6.23,4.28-11.28,9.57-11.28s9.57,5.05,9.57,11.28H13.89z"/>
	<line class="st1" x1="114.1" y1="390.9" x2="114.1" y2="312.83"/>
	<line class="st1" x1="23.46" y1="301.55" x2="104.53" y2="301.55"/>
	
		<text transform="matrix(1 0 0 1 45.7256 338.3019)" style="fill:#715EA6; font-family:'ArialRoundedMTBold'; font-size:28.4861px;">FAQ</text>
	<line class="st7" x1="50.16" y1="354.52" x2="76.32" y2="354.52"/>
	<line class="st7" x1="69.17" y1="369.01" x2="100.82" y2="369.01"/>
</g>
<g>
	<path class="st9" d="M89.55,514.19"/>
	<path class="st9" d="M89.55,525.7v31.97c0,4.5-3.68,8.19-8.19,8.19h-53.2c-4.5,0-8.19-3.68-8.19-8.19v-99.24
		c0-4.5,3.68-8.19,8.19-8.19h53.2c4.5,0,8.19,3.68,8.19,8.19v27.11"/>
	<line class="st10" x1="19.98" y1="541.82" x2="89.55" y2="541.82"/>
	<line class="st10" x1="19.98" y1="469.94" x2="89.55" y2="469.94"/>
	<circle cx="54.77" cy="553.58" r="3.07"/>
	<path class="st11" d="M118.52,488.87H85.29l-9.21,6.39l0.17-6.39h-3.9c-3.38,0-6.14-2.76-6.14-6.14v-26.35
		c0-3.38,2.76-6.14,6.14-6.14h46.16c3.38,0,6.14,2.76,6.14,6.14v26.35C124.65,486.11,121.89,488.87,118.52,488.87z"/>
	<circle class="st12" cx="79.4" cy="469.94" r="1.83"/>
	<circle class="st12" cx="95.43" cy="469.94" r="1.83"/>
	<circle class="st12" cx="110.87" cy="469.94" r="1.83"/>
</g>
<path class="st0" d="M46.74,690.58L46.74,690.58c-5.5,0-10-4.5-10-10V657.3c0-5.5,4.5-10,10-10h0c5.5,0,10,4.5,10,10v23.28
	C56.74,686.08,52.24,690.58,46.74,690.58z"/>
<path class="st0" d="M32.93,710.58L32.93,710.58c-5.5,0-10-4.5-10-10V647.3c0-5.5,4.5-10,10-10h0c5.5,0,10,4.5,10,10v53.28
	C42.93,706.08,38.43,710.58,32.93,710.58z"/>
<path class="st0" d="M109.86,608.65c-24.67,10.81-68.33,16-68.33,16l0.84,0.04c-0.28-0.02-0.55-0.04-0.84-0.04h-23
	c-6.05,0-11,4.95-11,11v27.33c0,6.05,4.95,11,11,11h23c0.28,0,0.56-0.02,0.84-0.04l-0.84,0.04c0,0,43.67,5.19,68.33,16"/>
<path class="st0" d="M108.86,697.98L108.86,697.98c-5.5,0-10-4.5-10-10v-75.33c0-5.5,4.5-10,10-10h0c5.5,0,10,4.5,10,10v75.33
	C118.86,693.48,114.36,697.98,108.86,697.98z"/>
<line class="st0" x1="42.36" y1="624.69" x2="42.36" y2="673.94"/>
<line class="st18" x1="22.93" y1="649.3" x2="27.74" y2="649.3"/>
<line class="st19" x1="137.93" y1="648.3" x2="151.86" y2="648.3"/>
<line class="st19" x1="134.7" y1="665.71" x2="141.16" y2="672.17"/>
<line class="st19" x1="134.7" y1="630.89" x2="141.16" y2="624.43"/>
</svg>
